# xmcd CD database file
#
# Track frame offsets:
#	150
#	22352
#	56105
#	83715
#	110502
#	130705
#	165017
#	191855
#	219560
#
# Disc length: 3254 seconds
#
# Revision: 0
# Processed by: cddbd v1.5.1PL2 Copyright (c) Steve Scherf et al.
# Submitted via: CDex 1.51
#
DISCID=7a0cb409
DTITLE=Hans-Malte Witte, Ack van Rooyen, Henk Sprenger - spirit up
DYEAR=2004
DGENRE=Jazz
TTITLE0=my ideal
TTITLE1=my little gospel song
TTITLE2=little by little
TTITLE3=even song ferrante haslip kennedy
TTITLE4=my one and only love
TTITLE5=anela
TTITLE6=stomping at the savoy
TTITLE7=henk´s funk
TTITLE8=autumn bugle
EXTD=YEAR: 2004
EXTT0=
EXTT1=
EXTT2=
EXTT3=
EXTT4=
EXTT5=
EXTT6=
EXTT7=
EXTT8=
PLAYORDER=
